<?xml version="1.0" encoding="utf-8"?>
<svg version="1.1" id="Layer_1" xmlns="http://www.w3.org/2000/svg" xmlns:xlink="http://www.w3.org/1999/xlink" x="0px" y="0px"
	 viewBox="0 0 500 500" style="enable-background:new 0 0 500 500;" xml:space="preserve">
<style type="text/css">
	.st0{fill:#232323;}
	.st1{fill:url(#SVGID_1_);}
	.st2{fill:url(#SVGID_2_);}
	.st3{fill:url(#XMLID_2_);}
	.st4{fill:url(#XMLID_3_);}
	.st5{fill:#1E1E1E;}
	.st6{fill:url(#XMLID_4_);}
	.st7{fill:url(#XMLID_5_);}
	.st8{fill:#010101;}
	.st9{fill:#FFFFFF;}
	.st10{fill:url(#SVGID_3_);}
	.st11{fill:url(#SVGID_4_);}
	.st12{fill:url(#SVGID_5_);}
	.st13{fill:url(#SVGID_6_);}
	.st14{fill:url(#SVGID_7_);}
	.st15{fill:url(#SVGID_8_);}
	.st16{fill:url(#SVGID_9_);}
	.st17{fill:url(#SVGID_10_);}
	.st18{fill:#2AB34B;}
</style>
<g>
	<path id="XMLID_827_" class="st0" d="M264.9,281.3c-8.2-4.7-21.6-4.7-29.8,0L162.9,323c-8.2,4.7-8.2,12.5,0,17.2l72.2,41.7
		c8.2,4.7,21.6,4.7,29.8,0l72.2-41.7c8.2-4.7,8.2-12.5,0-17.2L264.9,281.3z"/>
	
		<linearGradient id="SVGID_1_" gradientUnits="userSpaceOnUse" x1="211.1" y1="123.9" x2="211.1" y2="254.8" gradientTransform="matrix(1 0 0 -1 0 500)">
		<stop  offset="9.795894e-02" style="stop-color:#55B951"/>
		<stop  offset="0.6602" style="stop-color:#57B94D;stop-opacity:0.1623"/>
		<stop  offset="0.7691" style="stop-color:#57B94C;stop-opacity:0"/>
	</linearGradient>
	<polygon class="st1" points="173.3,246.8 173.3,248.3 173.3,249.8 173.3,251.3 173.3,252.9 173.3,254.4 173.3,255.9 173.3,257.4 
		173.3,259 173.3,260.5 173.3,262 173.3,263.5 173.3,265.1 173.3,266.6 173.3,268.1 173.3,269.6 173.3,271.1 173.3,272.7 
		173.3,274.2 173.3,275.7 173.3,277.2 173.3,278.8 173.3,280.3 173.3,281.8 173.3,283.3 173.3,284.9 173.3,286.4 173.3,287.9 
		173.3,289.4 173.3,291 173.3,292.5 173.3,294 173.3,295.5 173.3,297.1 173.3,298.6 173.3,300.1 173.3,301.6 173.3,303.2 
		173.3,304.7 173.3,306.2 173.3,307.7 173.3,309.3 173.3,310.8 173.3,312.3 173.3,313.8 173.3,315.3 173.3,316.9 173.3,318.4 
		173.3,319.9 173.3,321.4 173.3,323 173.3,332.5 248.9,376.1 248.9,366.6 248.9,365.1 248.9,363.6 248.9,362.1 248.9,360.5 
		248.9,359 248.9,357.5 248.9,356 248.9,354.4 248.9,352.9 248.9,351.4 248.9,349.9 248.9,348.3 248.9,346.8 248.9,345.3 
		248.9,343.8 248.9,342.2 248.9,340.7 248.9,339.2 248.9,337.7 248.9,336.1 248.9,334.6 248.9,333.1 248.9,331.6 248.9,330.1 
		248.9,328.5 248.9,327 248.9,325.5 248.9,324 248.9,322.4 248.9,320.9 248.9,319.4 248.9,317.9 248.9,316.3 248.9,314.8 
		248.9,313.3 248.9,311.8 248.9,310.2 248.9,308.7 248.9,307.2 248.9,305.7 248.9,304.1 248.9,302.6 248.9,301.1 248.9,299.6 
		248.9,298 248.9,296.5 248.9,295 248.9,293.5 248.9,292 248.9,290.4 248.9,288.9 173.3,245.2 	"/>
	
		<linearGradient id="SVGID_2_" gradientUnits="userSpaceOnUse" x1="296.1891" y1="107.6176" x2="276.3209" y2="277.8521" gradientTransform="matrix(1 0 0 -1 0 500)">
		<stop  offset="9.795894e-02" style="stop-color:#55B951"/>
		<stop  offset="0.6602" style="stop-color:#57B94D;stop-opacity:0.1623"/>
		<stop  offset="0.7691" style="stop-color:#57B94C;stop-opacity:0"/>
	</linearGradient>
	<polygon class="st2" points="248.9,288.9 248.9,290.4 248.9,292 248.9,293.5 248.9,295 248.9,296.5 248.9,298 248.9,299.6 
		248.9,301.1 248.9,302.6 248.9,304.1 248.9,305.7 248.9,307.2 248.9,308.7 248.9,310.2 248.9,311.8 248.9,313.3 248.9,314.8 
		248.9,316.3 248.9,317.9 248.9,319.4 248.9,320.9 248.9,322.4 248.9,324 248.9,325.5 248.9,327 248.9,328.5 248.9,330.1 
		248.9,331.6 248.9,333.1 248.9,334.6 248.9,336.1 248.9,337.7 248.9,339.2 248.9,340.7 248.9,342.2 248.9,343.8 248.9,345.3 
		248.9,346.8 248.9,348.3 248.9,349.9 248.9,351.4 248.9,352.9 248.9,354.4 248.9,356 248.9,357.5 248.9,359 248.9,360.5 
		248.9,362.1 248.9,363.6 248.9,365.1 248.9,366.6 248.9,376.1 324.4,332.5 324.4,323 324.4,321.4 324.4,319.9 324.4,318.4 
		324.4,316.9 324.4,315.3 324.4,313.8 324.4,312.3 324.4,310.8 324.4,309.3 324.4,307.7 324.4,306.2 324.4,304.7 324.4,303.2 
		324.4,301.6 324.4,300.1 324.4,298.6 324.4,297.1 324.4,295.5 324.4,294 324.4,292.5 324.4,291 324.4,289.4 324.4,287.9 
		324.4,286.4 324.4,284.9 324.4,283.3 324.4,281.8 324.4,280.3 324.4,278.8 324.4,277.2 324.4,275.7 324.4,274.2 324.4,272.7 
		324.4,271.1 324.4,269.6 324.4,268.1 324.4,266.6 324.4,265.1 324.4,263.5 324.4,262 324.4,260.5 324.4,259 324.4,257.4 
		324.4,255.9 324.4,254.4 324.4,252.9 324.4,251.3 324.4,249.8 324.4,248.3 324.4,246.8 324.4,245.2 	"/>
	
		<linearGradient id="XMLID_2_" gradientUnits="userSpaceOnUse" x1="249.9" y1="173.075" x2="249.9" y2="280.825" gradientTransform="matrix(1 0 0 -1 0 500)">
		<stop  offset="0.2309" style="stop-color:#57B94C"/>
		<stop  offset="0.3398" style="stop-color:#57B94D"/>
		<stop  offset="0.902" style="stop-color:#55B951"/>
	</linearGradient>
	<path id="XMLID_826_" class="st3" d="M264.9,222.7c-8.2-4.7-21.6-4.7-29.8,0l-78.4,26.2v18.3c0,5.6,2.9,10.8,7.7,13.7l70.6,42.5
		c8.2,4.7,21.6,4.7,29.8,0l70.3-40.2c5-2.8,8-8.1,8-13.8v-20.3L264.9,222.7z"/>
	<path id="XMLID_824_" class="st0" d="M264.9,198.6c-8.2-4.7-21.6-4.7-29.8,0l-72.2,41.7c-8.2,4.7-8.2,12.5,0,17.2l72.2,41.7
		c8.2,4.7,21.6,4.7,29.8,0l72.2-41.7c8.2-4.7,8.2-12.5,0-17.2L264.9,198.6z"/>
	
		<linearGradient id="XMLID_3_" gradientUnits="userSpaceOnUse" x1="218.3" y1="251.1" x2="281.6" y2="251.1" gradientTransform="matrix(1 0 0 -1 0 500)">
		<stop  offset="0.2309" style="stop-color:#57B94C"/>
		<stop  offset="0.5074" style="stop-color:#74C047"/>
		<stop  offset="0.7778" style="stop-color:#84C444"/>
		<stop  offset="1" style="stop-color:#8AC642"/>
	</linearGradient>
	<path id="XMLID_823_" class="st4" d="M255.1,231.9c-2.8-1.6-7.3-1.6-10.1,0L220.4,246c-2.8,1.6-2.8,4.2,0,5.8l24.5,14.1
		c2.8,1.6,7.3,1.6,10.1,0l24.5-14.1c2.8-1.6,2.8-4.2,0-5.8L255.1,231.9z"/>
	<path id="XMLID_821_" class="st5" d="M220.4,251.9l0.9,0.5l23.6-13.6c2.8-1.6,7.3-1.6,10.1,0l23.6,13.6l0.9-0.5
		c2.8-1.6,2.8-4.2,0-5.8L255,232c-2.8-1.6-7.3-1.6-10.1,0l-24.5,14C217.7,247.6,217.7,250.3,220.4,251.9z"/>
	
		<linearGradient id="XMLID_4_" gradientUnits="userSpaceOnUse" x1="156.8" y1="129.3875" x2="343.2034" y2="129.3875" gradientTransform="matrix(1 0 0 -1 0 500)">
		<stop  offset="2.818742e-08" style="stop-color:#1A1A1A"/>
		<stop  offset="1" style="stop-color:#111111"/>
	</linearGradient>
	<path id="XMLID_820_" class="st6" d="M337.1,340.2l-72.2,41.7c-8.2,4.7-21.6,4.7-29.8,0l-72.2-41.7c-4.1-2.4-6.1-5.5-6.1-8.6l0,0
		v18.3c0,5.6,2.9,10.8,7.7,13.7l70.6,42.5c8.2,4.7,21.6,4.7,29.8,0l70.3-40.2c5-2.8,8-8.1,8-13.8v-20.3
		C343.3,334.7,341.2,337.8,337.1,340.2z"/>
	
		<linearGradient id="XMLID_5_" gradientUnits="userSpaceOnUse" x1="173.1678" y1="172.525" x2="324.472" y2="172.525" gradientTransform="matrix(1 0 0 -1 0 500)">
		<stop  offset="0.2309" style="stop-color:#57B94C"/>
		<stop  offset="0.5074" style="stop-color:#74C047"/>
		<stop  offset="0.7778" style="stop-color:#84C444"/>
		<stop  offset="1" style="stop-color:#8AC642"/>
	</linearGradient>
	<path id="XMLID_819_" class="st7" d="M319.4,302.9l-58.6,33.8c-6.6,3.8-17.5,3.8-24.2,0L178,302.9c-3.3-1.9-5-4.4-5-7l0,0v14.8
		c0,4.5,2.4,8.7,6.3,11.1l57.3,34.4c6.6,3.8,17.5,3.8,24.2,0l57-32.6c4-2.3,6.5-6.6,6.5-11.2v-16.5
		C324.4,298.4,322.7,301,319.4,302.9z"/>
	<g>
		<path class="st8" d="M303.2,250.2c-1.1-1-2.6-1.9-3.8-2.6c-0.5-0.3-1.1-0.6-1.6-0.9c-0.5-0.3-1-0.6-1.5-0.9l-26.9-15.5
			c-2.4-1.4-4.8-2.8-7.3-4.2c-5.4-3.1-12.8-4.1-19.4-2.6c-3.6,0.8-6.1,2.3-8.8,3.8l-35.2,20.5c-4.9,2.8-6.9,6.4-5.8,10
			c0.9,2.9,4,4.9,7.4,6.9l36.7,21.2c3.5,1.9,8.1,2.9,12.6,2.9c4.4,0,8.7-0.9,12.2-2.8c1.4-0.7,2.7-1.5,4-2.3
			c0.6-0.4,1.3-0.8,1.9-1.1l26.1-15.1c0.8-0.4,1.5-0.9,2.3-1.3c1.6-0.9,3.1-1.8,4.7-2.7c3.2-1.9,5-4.4,5.3-7
			C306.2,254.2,305.2,252,303.2,250.2z"/>
		<g>
			<g>
				<path class="st9" d="M269.5,285.2c-2.2,1.3-4.3,2.6-6.6,3.8c-7.7,4.1-19.6,4-27.1-0.2c-0.7-0.4-1.3-0.7-1.8-1
					c-8.9-5.1-17.8-10.3-26.7-15.4c-4.1-2.4-8.2-4.7-12.3-7.1c-3.7-2.1-7-4.3-8-7.4c-1.3-4.1,1.3-7.8,6.3-10.7
					c3.4-2,6.8-3.9,10.1-5.9c9.4-5.5,18.8-10.9,28.2-16.4c3.2-1.8,6.1-3.7,10.4-4.7c7.5-1.7,15.7-0.4,21.3,2.8
					c2.7,1.5,5.4,3.1,8.1,4.6c5.4,3.1,10.7,6.2,16.1,9.3c4.6,2.7,9.2,5.3,13.8,8c1.1,0.7,2.3,1.3,3.5,2c1.5,0.9,3,1.8,4.1,2.8
					c5,4.5,3.5,10.4-2.8,14.1c-2.6,1.5-5.2,3-7.7,4.5C288.8,274,279.1,279.6,269.5,285.2z M274.1,278.4c8.7-5.1,17.4-10.1,26.1-15.2
					c3.3-1.9,6.2-3.8,6.7-6.6c0.4-2.5-1.2-4.9-4.2-6.7c-0.2-0.1-0.4-0.2-0.6-0.4c-0.4-0.2-0.8-0.5-1.3-0.7
					c-8.5-4.9-17.1-9.9-25.6-14.8c-4.1-2.3-8.1-4.7-12.2-7c-0.7-0.4-1.4-0.8-2.1-1.2c-2.1-1.2-4.3-2.4-7.3-2.9
					c-6.1-1.1-11.6,0.2-15.8,2.7c-3.3,1.9-6.6,3.8-9.9,5.7c-9.1,5.3-18.2,10.6-27.4,15.9c-2.2,1.3-5,2.6-6.7,4.2
					c-3.8,3.6-2.3,7.8,2.7,10.7c2.6,1.5,5.2,3,7.8,4.5c5.2,3,10.4,6,15.5,9c6.5,3.7,12.9,7.5,19.4,11.2c3.3,1.8,7.8,2.8,12.3,2.4
					c4.7-0.4,7.7-2.1,10.9-4C266.3,282.9,270.2,280.7,274.1,278.4"/>
				<path class="st9" d="M249.6,292.5c-5,0-10.1-1.1-14-3.2l-40.8-23.5c-3.7-2.2-7.2-4.4-8.2-7.6c-1.3-4,1-8,6.5-11.1l39.1-22.7
					c3-1.7,5.7-3.4,9.8-4.3c7.4-1.7,15.6-0.6,21.6,2.8c2.7,1.5,5.4,3.1,8.1,4.6l29.9,17.3c0.6,0.3,1.1,0.6,1.7,1
					c0.6,0.3,1.2,0.7,1.8,1c1.3,0.7,2.9,1.7,4.2,2.9c2.2,2,3.3,4.4,3.1,6.9c-0.3,2.9-2.4,5.7-5.9,7.8c-1.7,1-3.4,2-5.2,3
					c-0.9,0.5-1.7,1-2.6,1.5l-29,16.8c-0.7,0.4-1.4,0.8-2.1,1.3c-1.4,0.9-2.9,1.7-4.5,2.6C259.3,291.4,254.4,292.5,249.6,292.5z
					 M249,219.9c-2.3,0-4.6,0.2-6.9,0.8c-3.9,0.9-6.7,2.5-9.6,4.2l-39.1,22.7c-3.6,2.1-7.6,5.6-6.1,10.2c0.9,3,4.3,5.1,7.8,7.2
					l40.8,23.5c7.5,4.1,19.3,4.2,26.8,0.2c1.5-0.8,3-1.7,4.4-2.6c0.7-0.4,1.4-0.8,2.1-1.3l29-16.8c0.9-0.5,1.7-1,2.6-1.5
					c1.7-1,3.5-2,5.2-3c3.3-2,5.3-4.5,5.5-7.2c0.2-2.2-0.8-4.4-2.8-6.3c-1.2-1.1-2.8-2.1-4.1-2.8c-0.6-0.3-1.2-0.7-1.8-1
					c-0.6-0.3-1.2-0.6-1.7-1l-29.9-17.3c-2.7-1.5-5.4-3.1-8.1-4.6C259.2,221.1,254.1,219.9,249,219.9z M249.5,289.6
					c-3.8,0-7.6-0.9-10.5-2.5l-34.9-20.2c-2.6-1.5-5.2-3-7.8-4.5c-2.9-1.7-4.7-3.9-5-6.2c-0.2-1.8,0.5-3.6,2.2-5.2
					c1.3-1.2,3.2-2.3,5.1-3.3c0.6-0.3,1.2-0.6,1.7-1l37.2-21.6c3.4-2,8.9-4.1,16.1-2.7c3.1,0.6,5.5,1.8,7.4,2.9
					c0.3,0.2,0.7,0.4,1,0.6c0.4,0.2,0.7,0.4,1.1,0.6l39.1,22.5c0.2,0.1,0.4,0.2,0.6,0.4c3.2,1.9,4.8,4.5,4.4,7.1
					c-0.4,2.9-3.2,4.8-6.9,6.9l-37.7,21.9c-3.2,1.9-6.2,3.6-11.1,4C250.9,289.6,250.2,289.6,249.5,289.6z M249.2,222.8
					c-4.9,0-8.7,1.6-11.3,3.1l-37.2,21.6c-0.6,0.3-1.1,0.6-1.7,1c-1.8,1-3.7,2-4.9,3.2c-1.5,1.4-2.1,3-2,4.5c0.2,2,1.9,4,4.6,5.6
					c2.6,1.5,5.2,3,7.8,4.5l34.9,20.2c3.3,1.9,7.7,2.7,12.1,2.3c4.7-0.4,7.6-2.1,10.8-3.9L300,263c3.4-2,6.1-3.7,6.5-6.3
					c0.3-2.3-1.1-4.6-4.1-6.4c-0.2-0.1-0.4-0.2-0.6-0.4l-9.4-5.4l-29.7-17.1c-0.4-0.2-0.7-0.4-1.1-0.6c-0.3-0.2-0.7-0.4-1-0.6
					c-1.9-1.1-4.2-2.3-7.2-2.9C252,223,250.6,222.8,249.2,222.8z"/>
			</g>
		</g>
		
			<linearGradient id="SVGID_3_" gradientUnits="userSpaceOnUse" x1="249.3188" y1="207.7" x2="249.3188" y2="363" gradientTransform="matrix(1 0 0 -1 0 500)">
			<stop  offset="0" style="stop-color:#64BC46;stop-opacity:0.5"/>
			<stop  offset="0.1739" style="stop-color:#599B43;stop-opacity:0.4131"/>
			<stop  offset="0.5563" style="stop-color:#3B5936;stop-opacity:0.2219"/>
			<stop  offset="1" style="stop-color:#101010;stop-opacity:0"/>
		</linearGradient>
		<path class="st10" d="M187.7,258.2V137h123.4l-0.7,119.7c0,0,0.5,4.2-7.3,8.7c-17.4,10.2-39.9,26.9-53.7,26.9
			c-12.3,0-35.6-16-54.4-27.6C185.8,259.1,187.7,258.2,187.7,258.2z"/>
		<g>
			<g>
				<g>
					
						<linearGradient id="SVGID_4_" gradientUnits="userSpaceOnUse" x1="261.3" y1="256.9" x2="261.3" y2="281.1479" gradientTransform="matrix(1 0 0 -1 0 500)">
						<stop  offset="0" style="stop-color:#182E18"/>
						<stop  offset="1" style="stop-color:#0E723A"/>
					</linearGradient>
					<polygon class="st11" points="263.1,243.1 259.7,241.2 259.5,218.9 262.9,220.8 					"/>
				</g>
				<g>
					
						<linearGradient id="SVGID_5_" gradientUnits="userSpaceOnUse" x1="249.25" y1="256.8794" x2="249.25" y2="267.1794" gradientTransform="matrix(1 0 0 -1 0 500)">
						<stop  offset="0" style="stop-color:#182E18"/>
						<stop  offset="1" style="stop-color:#0E723A"/>
					</linearGradient>
					<polygon class="st12" points="238.8,234.8 235.4,232.8 259.7,241.2 263.1,243.1 					"/>
				</g>
				<g>
					
						<linearGradient id="SVGID_6_" gradientUnits="userSpaceOnUse" x1="255.55" y1="277.0662" x2="255.55" y2="293.4662" gradientTransform="matrix(1 0 0 -1 0 500)">
						<stop  offset="0" style="stop-color:#182E18"/>
						<stop  offset="1" style="stop-color:#0E723A"/>
					</linearGradient>
					<polygon class="st13" points="244.7,222.9 241.3,221 266.4,206.5 269.8,208.5 					"/>
				</g>
				<g>
					
						<linearGradient id="SVGID_7_" gradientUnits="userSpaceOnUse" x1="242.4" y1="271.1448" x2="242.4" y2="303.7448" gradientTransform="matrix(1 0 0 -1 0 500)">
						<stop  offset="0" style="stop-color:#182E18"/>
						<stop  offset="1" style="stop-color:#0E723A"/>
					</linearGradient>
					<polygon class="st14" points="232.2,228.9 228.8,226.9 252.6,196.3 256,198.2 					"/>
				</g>
				<g>
					
						<linearGradient id="SVGID_8_" gradientUnits="userSpaceOnUse" x1="230.55" y1="227.6" x2="230.55" y2="273.1" gradientTransform="matrix(1 0 0 -1 0 500)">
						<stop  offset="0" style="stop-color:#182E18"/>
						<stop  offset="1" style="stop-color:#0E723A"/>
					</linearGradient>
					<polygon class="st15" points="232.3,272.4 228.9,270.4 228.8,226.9 232.2,228.9 					"/>
				</g>
				<g>
					
						<linearGradient id="SVGID_9_" gradientUnits="userSpaceOnUse" x1="249.2" y1="296.6518" x2="249.2" y2="320.3423" gradientTransform="matrix(1 0 0 -1 0 500)">
						<stop  offset="0" style="stop-color:#182E18"/>
						<stop  offset="1" style="stop-color:#0E723A"/>
					</linearGradient>
					<polygon class="st16" points="232.1,203.3 228.7,201.4 266.3,179.7 269.7,181.6 					"/>
				</g>
				<g>
					
						<linearGradient id="SVGID_10_" gradientUnits="userSpaceOnUse" x1="230.4" y1="288" x2="230.4" y2="298.6301" gradientTransform="matrix(1 0 0 -1 0 500)">
						<stop  offset="0" style="stop-color:#182E18"/>
						<stop  offset="1" style="stop-color:#0E723A"/>
					</linearGradient>
					<polygon class="st17" points="232.1,212 228.7,210 228.7,201.4 232.1,203.3 					"/>
				</g>
			</g>
			<g>
				<path class="st18" d="M269.7,181.6v8.3l-25.1,33l25.1-14.4l0.1,36.9v0.8v4.4l-6.8,3.9l-24.3-7.5l0.1,21.5l-6.6,3.8l-0.1-43.5
					l23.8-30.6L232.1,212v-8.7L269.7,181.6z M262.9,220.8l-24.2,13.9L263,243L262.9,220.8"/>
			</g>
		</g>
	</g>
</g>
</svg>
