<?xml version="1.0" encoding="utf-8"?>
<svg version="1.1" id="Layer_1" xmlns="http://www.w3.org/2000/svg" xmlns:xlink="http://www.w3.org/1999/xlink" x="0px" y="0px"
	 viewBox="0 0 500 500" style="enable-background:new 0 0 500 500;" xml:space="preserve">
<style type="text/css">
	.st0{fill:#333333;}
	.st1{fill:#282828;}
	.st2{fill:#383938;}
	.st3{fill:#212121;}
	.st4{enable-background:new    ;}
	.st5{fill:#8AC642;}
	.st6{fill:#6EBE48;}
	.st7{fill:none;stroke:url(#SVGID_1_);stroke-width:4;stroke-linecap:round;stroke-linejoin:round;stroke-miterlimit:10;}
	.st8{fill:none;stroke:url(#SVGID_2_);stroke-width:4;stroke-linecap:round;stroke-linejoin:round;stroke-miterlimit:10;}
	.st9{fill:url(#SVGID_3_);}
	.st10{fill:none;stroke:url(#SVGID_4_);stroke-width:4;stroke-linecap:round;stroke-linejoin:round;stroke-miterlimit:10;}
	.st11{fill:none;stroke:url(#SVGID_5_);stroke-width:4;stroke-linecap:round;stroke-linejoin:round;stroke-miterlimit:10;}
	.st12{fill:url(#SVGID_6_);}
</style>
<g>
	<g>
		<g>
			<polygon class="st0" points="315.3,257.3 315,344 250.1,381.7 250.3,295.1 			"/>
		</g>
		<g>
			<polygon class="st1" points="250.3,295.1 250.1,381.7 184.7,344 185,257.3 			"/>
		</g>
		<g>
			<polygon class="st2" points="315.3,257.3 250.3,295.1 185,257.3 249.9,219.6 			"/>
		</g>
		<g>
			<polygon class="st3" points="300.8,256.7 252.9,284.5 204.7,256.7 252.6,228.8 			"/>
		</g>
		<g>
			<g>
				<polygon class="st3" points="235.5,305.5 235.4,362.2 192.6,337.5 192.8,280.8 				"/>
			</g>
			<g>
				<g class="st4">
					<g>
						<polygon class="st5" points="220.7,325.4 220.7,327 222.1,327.8 211,321.4 211,319.8 						"/>
					</g>
					<g>
						<polygon class="st5" points="227.7,323 227.7,324.6 217.5,318.7 217.5,317.2 						"/>
					</g>
				</g>
				<g>
					<polygon class="st5" points="210,335.2 210,336.8 196.3,328.8 196.3,327.3 					"/>
				</g>
				<g>
					<polygon class="st5" points="227.9,348.4 227.9,350 204.3,336.4 204.3,335.1 					"/>
				</g>
				<g>
					<polygon class="st5" points="210,328.8 210,330.3 196.3,322.4 196.3,320.9 					"/>
				</g>
				<g>
					<polygon class="st5" points="216.1,335.4 216.1,337 210,333.5 208.7,332.7 208.7,331.2 208.7,331.1 					"/>
				</g>
				<g>
					<polygon class="st5" points="218.7,340.1 218.7,341.7 212.7,338.2 211.3,337.4 211.3,335.8 211.3,335.8 					"/>
				</g>
				<g>
					<polygon class="st5" points="228,345.4 228,347 221.9,343.5 220.6,342.7 220.6,341.1 220.6,341.1 					"/>
				</g>
				<g>
					<polygon class="st5" points="219.8,334.4 219.8,336 211,330.9 211,329.3 					"/>
				</g>
				<g>
					<polygon class="st5" points="219.8,331.4 219.8,332.9 210,327.3 209,326.6 209,325.1 					"/>
				</g>
				<g>
					<polygon class="st5" points="209,325.1 209,326.6 210,327.3 196.3,319.3 196.3,317.8 					"/>
				</g>
				<g class="st4">
					<g>
						<polygon class="st5" points="210.1,319.3 210.1,320.8 196.3,312.9 196.3,311.4 						"/>
					</g>
					<g>
						<polygon class="st5" points="210.1,316.1 210.1,317.6 196.3,309.7 196.3,308.2 						"/>
					</g>
				</g>
				<g>
					<polygon class="st5" points="216.1,316.4 216.1,317.9 211,314.9 211,313.4 					"/>
				</g>
				<g>
					<polygon class="st5" points="219.9,315.3 219.9,316.8 210.1,311.2 207.7,309.8 207.8,308.3 					"/>
				</g>
				<g class="st4">
					<g>
						<polygon class="st5" points="207.8,308.3 207.7,309.8 210.1,311.2 196.4,303.3 196.4,301.7 						"/>
					</g>
					<g>
						<polygon class="st5" points="208.7,302.4 208.7,304 210.1,304.8 196.4,296.8 196.4,295.3 						"/>
					</g>
					<g>
						<polygon class="st5" points="216.2,306.7 216.2,308.3 210.1,304.8 208.7,304 208.7,302.4 208.7,302.4 						"/>
					</g>
				</g>
				<g>
					<polygon class="st5" points="210.1,300 210.1,301.6 196.4,293.6 196.4,292.1 					"/>
				</g>
				<g>
					<polygon class="st5" points="219.9,305.7 219.9,307.2 211,302.1 211.1,300.6 					"/>
				</g>
				<g>
					<polygon class="st5" points="227.7,310.2 227.7,311.7 220.7,307.7 220.7,306.1 					"/>
				</g>
				<g>
					<polygon class="st5" points="227.7,316.6 227.7,318.1 220.7,314.1 220.7,312.6 					"/>
				</g>
				<g>
					<polygon class="st5" points="227.7,313.4 227.7,314.9 220.7,310.9 220.7,309.4 					"/>
				</g>
				<g>
					<polygon class="st5" points="227.7,329.5 227.7,331 222.1,327.8 220.7,327 220.7,325.4 					"/>
				</g>
				<g>
					<polygon class="st5" points="227.7,326.2 227.7,327.8 220.7,323.7 220.7,322.2 					"/>
				</g>
				<g>
					<polygon class="st5" points="227.6,335.9 227.6,337.4 220.7,333.4 220.7,331.8 					"/>
				</g>
				<g>
					<polygon class="st5" points="227.7,332.7 227.6,334.2 220.7,330.2 220.7,328.6 					"/>
				</g>
			</g>
		</g>
		<g>
			<g>
				<polygon class="st3" points="263.8,304.9 264,361.5 306.7,336.8 306.5,280.2 				"/>
			</g>
			<g>
				<g class="st4">
					<g>
						<polygon class="st5" points="278.7,324.8 278.7,326.3 277.3,327.1 288.3,320.7 288.3,319.2 						"/>
					</g>
					<g>
						<polygon class="st5" points="271.7,322.4 271.7,323.9 281.8,318 281.8,316.5 						"/>
					</g>
				</g>
				<g>
					<polygon class="st5" points="289.3,334.6 289.3,336.1 303.1,328.2 303,326.6 					"/>
				</g>
				<g>
					<polygon class="st5" points="271.5,347.8 271.5,349.3 295.1,335.7 295.1,334.4 					"/>
				</g>
				<g>
					<polygon class="st5" points="289.3,328.1 289.3,329.7 303,321.7 303,320.2 					"/>
				</g>
				<g>
					<polygon class="st5" points="283.2,334.8 283.3,336.4 289.3,332.9 290.7,332.1 290.7,330.6 290.7,330.5 					"/>
				</g>
				<g>
					<polygon class="st5" points="280.6,339.4 280.6,341 286.7,337.5 288,336.7 288,335.2 288,335.1 					"/>
				</g>
				<g>
					<polygon class="st5" points="271.3,344.7 271.3,346.3 277.4,342.8 278.8,342 278.8,340.5 278.8,340.4 					"/>
				</g>
				<g>
					<polygon class="st5" points="279.5,333.8 279.5,335.3 288.4,330.2 288.4,328.7 					"/>
				</g>
				<g>
					<polygon class="st5" points="279.5,330.7 279.5,332.2 289.3,326.6 290.4,326 290.4,324.4 					"/>
				</g>
				<g>
					<polygon class="st5" points="290.4,324.4 290.4,326 289.3,326.6 303,318.7 303,317.1 					"/>
				</g>
				<g class="st4">
					<g>
						<polygon class="st5" points="289.3,318.6 289.3,320.2 303,312.2 303,310.7 						"/>
					</g>
					<g>
						<polygon class="st5" points="289.3,315.4 289.3,317 303,309 303,307.5 						"/>
					</g>
				</g>
				<g>
					<polygon class="st5" points="283.2,315.7 283.2,317.2 288.3,314.3 288.3,312.7 					"/>
				</g>
				<g>
					<polygon class="st5" points="279.5,314.6 279.5,316.2 289.2,310.5 291.6,309.2 291.6,307.6 					"/>
				</g>
				<g class="st4">
					<g>
						<polygon class="st5" points="291.6,307.6 291.6,309.2 289.2,310.5 303,302.6 303,301.1 						"/>
					</g>
					<g>
						<polygon class="st5" points="290.6,301.8 290.6,303.3 289.2,304.1 303,296.2 303,294.6 						"/>
					</g>
					<g>
						<polygon class="st5" points="283.2,306 283.2,307.6 289.2,304.1 290.6,303.3 290.6,301.8 290.6,301.7 						"/>
					</g>
				</g>
				<g>
					<polygon class="st5" points="289.2,299.4 289.2,300.9 303,293 302.9,291.4 					"/>
				</g>
				<g>
					<polygon class="st5" points="279.4,305 279.4,306.5 288.3,301.4 288.3,299.9 					"/>
				</g>
				<g>
					<polygon class="st5" points="271.6,309.5 271.6,311 278.6,307 278.6,305.5 					"/>
				</g>
				<g>
					<polygon class="st5" points="271.6,315.9 271.6,317.5 278.6,313.4 278.6,311.9 					"/>
				</g>
				<g>
					<polygon class="st5" points="271.6,312.7 271.6,314.3 278.6,310.2 278.6,308.7 					"/>
				</g>
				<g>
					<polygon class="st5" points="271.7,328.8 271.7,330.3 277.3,327.1 278.7,326.3 278.7,324.8 					"/>
				</g>
				<g>
					<polygon class="st5" points="271.7,325.6 271.7,327.1 278.7,323.1 278.7,321.5 					"/>
				</g>
				<g>
					<polygon class="st5" points="271.7,335.2 271.7,336.8 278.7,332.7 278.7,331.2 					"/>
				</g>
				<g>
					<polygon class="st5" points="271.7,332 271.7,333.5 278.7,329.5 278.7,328 					"/>
				</g>
			</g>
		</g>
		<g>
			<g class="st4">
				<g>
					<polygon class="st6" points="259.6,247.9 258.1,248.7 241.1,238.9 242.6,238 					"/>
				</g>
				<g>
					<polygon class="st6" points="270.2,254 268.8,254.9 259,249.2 260.4,248.4 					"/>
				</g>
				<g>
					<polygon class="st6" points="267.1,255.9 265.6,256.7 238,240.7 239.4,239.9 					"/>
				</g>
				<g>
					<polygon class="st6" points="235.7,256.5 234.3,257.4 221.7,250.1 223.2,249.3 					"/>
				</g>
				<g>
					<polygon class="st6" points="245.5,256.6 244,257.4 226.6,247.3 228,246.5 					"/>
				</g>
				<g>
					<polygon class="st6" points="258.6,261.3 257.2,262.1 229,245.8 230.4,245 					"/>
				</g>
				<g>
					<polygon class="st6" points="266.7,262.3 265.2,263.1 232.2,244.1 233.7,243.2 					"/>
				</g>
				<g>
					<polygon class="st6" points="246.3,262.6 244.8,263.4 235,257.8 236.5,256.9 					"/>
				</g>
				<g>
					<polygon class="st6" points="280.2,263.4 278.8,264.3 266.3,257.1 267.7,256.2 					"/>
				</g>
				<g>
					<polygon class="st6" points="277.1,265.3 275.6,266.1 258.2,256 259.6,255.2 					"/>
				</g>
				<g>
					<polygon class="st6" points="271.5,268.7 270,269.5 258.1,262.7 259.6,261.8 					"/>
				</g>
				<g>
					<polygon class="st6" points="266.3,271.5 264.9,272.4 231.8,253.3 233.3,252.4 					"/>
				</g>
				<g>
					<polygon class="st6" points="264.1,272.9 262.7,273.8 245.6,263.9 247.1,263.1 					"/>
				</g>
				<g>
					<polygon class="st6" points="261.3,274.6 259.9,275.4 250.1,269.8 251.5,268.9 					"/>
				</g>
				<g>
					<polygon class="st6" points="258.8,276 257.4,276.9 224.3,257.8 225.8,256.9 					"/>
				</g>
			</g>
			<g>
				<polygon class="st6" points="283.4,261.6 281.9,262.5 269.4,255.2 270.9,254.4 				"/>
			</g>
		</g>
		<g>
			<linearGradient id="SVGID_1_" gradientUnits="userSpaceOnUse" x1="188.7279" y1="278.0995" x2="251.6762" y2="278.0995">
				<stop  offset="7.516645e-08" style="stop-color:#151515;stop-opacity:0"/>
				<stop  offset="8.543818e-02" style="stop-color:#2B3327;stop-opacity:8.543813e-02"/>
				<stop  offset="0.1953" style="stop-color:#405134;stop-opacity:0.1953"/>
				<stop  offset="0.3101" style="stop-color:#54703D;stop-opacity:0.3101"/>
				<stop  offset="0.4286" style="stop-color:#668B42;stop-opacity:0.4286"/>
				<stop  offset="0.5521" style="stop-color:#74A243;stop-opacity:0.5521"/>
				<stop  offset="0.6825" style="stop-color:#7EB343;stop-opacity:0.6825"/>
				<stop  offset="0.8246" style="stop-color:#85BF43;stop-opacity:0.8246"/>
				<stop  offset="1" style="stop-color:#87C544"/>
			</linearGradient>
			<line class="st7" x1="190.7" y1="260.5" x2="249.7" y2="295.7"/>
			
				<linearGradient id="SVGID_2_" gradientUnits="userSpaceOnUse" x1="-156.2591" y1="277.4405" x2="-90.4903" y2="277.4405" gradientTransform="matrix(-1 0 0 1 157.7198 0)">
				<stop  offset="7.516645e-08" style="stop-color:#151515;stop-opacity:0"/>
				<stop  offset="8.543818e-02" style="stop-color:#2B3327;stop-opacity:8.543813e-02"/>
				<stop  offset="0.1953" style="stop-color:#405134;stop-opacity:0.1953"/>
				<stop  offset="0.3101" style="stop-color:#54703D;stop-opacity:0.3101"/>
				<stop  offset="0.4286" style="stop-color:#668B42;stop-opacity:0.4286"/>
				<stop  offset="0.5521" style="stop-color:#74A243;stop-opacity:0.5521"/>
				<stop  offset="0.6825" style="stop-color:#7EB343;stop-opacity:0.6825"/>
				<stop  offset="0.8246" style="stop-color:#85BF43;stop-opacity:0.8246"/>
				<stop  offset="1" style="stop-color:#87C544"/>
			</linearGradient>
			<line class="st8" x1="312" y1="259.1" x2="250.2" y2="295.7"/>
			<linearGradient id="SVGID_3_" gradientUnits="userSpaceOnUse" x1="249.6761" y1="380.3929" x2="249.6761" y2="294.4211">
				<stop  offset="7.516645e-08" style="stop-color:#151515;stop-opacity:0"/>
				<stop  offset="8.543818e-02" style="stop-color:#2B3327;stop-opacity:8.543813e-02"/>
				<stop  offset="0.1953" style="stop-color:#405134;stop-opacity:0.1953"/>
				<stop  offset="0.3101" style="stop-color:#54703D;stop-opacity:0.3101"/>
				<stop  offset="0.4286" style="stop-color:#668B42;stop-opacity:0.4286"/>
				<stop  offset="0.5521" style="stop-color:#74A243;stop-opacity:0.5521"/>
				<stop  offset="0.6825" style="stop-color:#7EB343;stop-opacity:0.6825"/>
				<stop  offset="0.8246" style="stop-color:#85BF43;stop-opacity:0.8246"/>
				<stop  offset="1" style="stop-color:#87C544"/>
			</linearGradient>
			<path class="st9" d="M251,295.7l-1,83.3l-1.7-83.3c0-0.7,0.6-1.3,1.3-1.3C250.4,294.4,251,295,251,295.7
				C251,295.7,251,295.7,251,295.7z"/>
		</g>
	</g>
	<g>
		<g>
			<polygon class="st0" points="315.3,156 315,242.7 250.1,280.4 250.3,193.8 			"/>
		</g>
		<g>
			<polygon class="st1" points="250.3,193.8 250.1,280.4 184.7,242.7 185,156 			"/>
		</g>
		<g>
			<polygon class="st2" points="315.3,156 250.3,193.8 185,156 249.9,118.3 			"/>
		</g>
		<g>
			<polygon class="st3" points="300.8,155.4 252.9,183.2 204.7,155.4 252.6,127.5 			"/>
		</g>
		<g>
			<g>
				<polygon class="st3" points="235.5,204.2 235.4,260.9 192.6,236.2 192.8,179.5 				"/>
			</g>
			<g>
				<g class="st4">
					<g>
						<polygon class="st5" points="220.7,224.1 220.7,225.6 222.1,226.5 211,220.1 211,218.5 						"/>
					</g>
					<g>
						<polygon class="st5" points="227.7,221.7 227.7,223.2 217.5,217.4 217.5,215.8 						"/>
					</g>
				</g>
				<g>
					<polygon class="st5" points="210,233.9 210,235.4 196.3,227.5 196.3,226 					"/>
				</g>
				<g>
					<polygon class="st5" points="227.9,247.1 227.9,248.7 204.3,235.1 204.3,233.8 					"/>
				</g>
				<g>
					<polygon class="st5" points="210,227.5 210,229 196.3,221.1 196.3,219.5 					"/>
				</g>
				<g>
					<polygon class="st5" points="216.1,234.1 216.1,235.7 210,232.2 208.7,231.4 208.7,229.9 208.7,229.8 					"/>
				</g>
				<g>
					<polygon class="st5" points="218.7,238.7 218.7,240.4 212.7,236.9 211.3,236.1 211.3,234.5 211.3,234.5 					"/>
				</g>
				<g>
					<polygon class="st5" points="228,244 228,245.6 221.9,242.1 220.6,241.4 220.6,239.8 220.6,239.7 					"/>
				</g>
				<g>
					<polygon class="st5" points="219.8,233.1 219.8,234.7 211,229.5 211,228 					"/>
				</g>
				<g>
					<polygon class="st5" points="219.8,230.1 219.8,231.6 210,225.9 209,225.3 209,223.8 					"/>
				</g>
				<g>
					<polygon class="st5" points="209,223.8 209,225.3 210,225.9 196.3,218 196.3,216.5 					"/>
				</g>
				<g class="st4">
					<g>
						<polygon class="st5" points="210.1,218 210.1,219.5 196.3,211.6 196.3,210.1 						"/>
					</g>
					<g>
						<polygon class="st5" points="210.1,214.8 210.1,216.3 196.3,208.4 196.3,206.8 						"/>
					</g>
				</g>
				<g>
					<polygon class="st5" points="216.1,215.1 216.1,216.6 211,213.6 211,212.1 					"/>
				</g>
				<g>
					<polygon class="st5" points="219.9,214 219.9,215.5 210.1,209.9 207.7,208.5 207.8,207 					"/>
				</g>
				<g class="st4">
					<g>
						<polygon class="st5" points="207.8,207 207.7,208.5 210.1,209.9 196.4,201.9 196.4,200.4 						"/>
					</g>
					<g>
						<polygon class="st5" points="208.7,201.1 208.7,202.7 210.1,203.4 196.4,195.5 196.4,194 						"/>
					</g>
					<g>
						<polygon class="st5" points="216.2,205.3 216.2,206.9 210.1,203.4 208.7,202.7 208.7,201.1 208.7,201.1 						"/>
					</g>
				</g>
				<g>
					<polygon class="st5" points="210.1,198.7 210.1,200.2 196.4,192.3 196.4,190.8 					"/>
				</g>
				<g>
					<polygon class="st5" points="219.9,204.3 219.9,205.9 211,200.8 211.1,199.2 					"/>
				</g>
				<g>
					<polygon class="st5" points="227.7,208.9 227.7,210.4 220.7,206.4 220.7,204.8 					"/>
				</g>
				<g>
					<polygon class="st5" points="227.7,215.3 227.7,216.8 220.7,212.8 220.7,211.2 					"/>
				</g>
				<g>
					<polygon class="st5" points="227.7,212.1 227.7,213.6 220.7,209.6 220.7,208 					"/>
				</g>
				<g>
					<polygon class="st5" points="227.7,228.1 227.7,229.7 222.1,226.5 220.7,225.6 220.7,224.1 					"/>
				</g>
				<g>
					<polygon class="st5" points="227.7,224.9 227.7,226.5 220.7,222.4 220.7,220.9 					"/>
				</g>
				<g>
					<polygon class="st5" points="227.6,234.6 227.6,236.1 220.7,232.1 220.7,230.5 					"/>
				</g>
				<g>
					<polygon class="st5" points="227.7,231.4 227.6,232.9 220.7,228.9 220.7,227.3 					"/>
				</g>
			</g>
		</g>
		<g>
			<g>
				<polygon class="st3" points="263.8,203.5 264,260.2 306.7,235.5 306.5,178.9 				"/>
			</g>
			<g>
				<g class="st4">
					<g>
						<polygon class="st5" points="278.7,223.4 278.7,225 277.3,225.8 288.3,219.4 288.3,217.9 						"/>
					</g>
					<g>
						<polygon class="st5" points="271.7,221.1 271.7,222.6 281.8,216.7 281.8,215.2 						"/>
					</g>
				</g>
				<g>
					<polygon class="st5" points="289.3,233.2 289.3,234.8 303.1,226.8 303,225.3 					"/>
				</g>
				<g>
					<polygon class="st5" points="271.5,246.5 271.5,248 295.1,234.4 295.1,233.1 					"/>
				</g>
				<g>
					<polygon class="st5" points="289.3,226.8 289.3,228.4 303,220.4 303,218.9 					"/>
				</g>
				<g>
					<polygon class="st5" points="283.2,233.5 283.3,235.1 289.3,231.6 290.7,230.8 290.7,229.2 290.7,229.2 					"/>
				</g>
				<g>
					<polygon class="st5" points="280.6,238.1 280.6,239.7 286.7,236.2 288,235.4 288,233.9 288,233.8 					"/>
				</g>
				<g>
					<polygon class="st5" points="271.3,243.4 271.3,245 277.4,241.5 278.8,240.7 278.8,239.2 278.8,239.1 					"/>
				</g>
				<g>
					<polygon class="st5" points="279.5,232.5 279.5,234 288.4,228.9 288.4,227.4 					"/>
				</g>
				<g>
					<polygon class="st5" points="279.5,229.4 279.5,230.9 289.3,225.3 290.4,224.7 290.4,223.1 					"/>
				</g>
				<g>
					<polygon class="st5" points="290.4,223.1 290.4,224.7 289.3,225.3 303,217.4 303,215.8 					"/>
				</g>
				<g class="st4">
					<g>
						<polygon class="st5" points="289.3,217.3 289.3,218.9 303,210.9 303,209.4 						"/>
					</g>
					<g>
						<polygon class="st5" points="289.3,214.1 289.3,215.6 303,207.7 303,206.2 						"/>
					</g>
				</g>
				<g>
					<polygon class="st5" points="283.2,214.4 283.2,215.9 288.3,213 288.3,211.4 					"/>
				</g>
				<g>
					<polygon class="st5" points="279.5,213.3 279.5,214.9 289.2,209.2 291.6,207.9 291.6,206.3 					"/>
				</g>
				<g class="st4">
					<g>
						<polygon class="st5" points="291.6,206.3 291.6,207.9 289.2,209.2 303,201.3 303,199.8 						"/>
					</g>
					<g>
						<polygon class="st5" points="290.6,200.5 290.6,202 289.2,202.8 303,194.9 303,193.3 						"/>
					</g>
					<g>
						<polygon class="st5" points="283.2,204.7 283.2,206.3 289.2,202.8 290.6,202 290.6,200.5 290.6,200.4 						"/>
					</g>
				</g>
				<g>
					<polygon class="st5" points="289.2,198 289.2,199.6 303,191.6 302.9,190.1 					"/>
				</g>
				<g>
					<polygon class="st5" points="279.4,203.7 279.4,205.2 288.3,200.1 288.3,198.6 					"/>
				</g>
				<g>
					<polygon class="st5" points="271.6,208.2 271.6,209.7 278.6,205.7 278.6,204.2 					"/>
				</g>
				<g>
					<polygon class="st5" points="271.6,214.6 271.6,216.2 278.6,212.1 278.6,210.6 					"/>
				</g>
				<g>
					<polygon class="st5" points="271.6,211.4 271.6,212.9 278.6,208.9 278.6,207.4 					"/>
				</g>
				<g>
					<polygon class="st5" points="271.7,227.5 271.7,229 277.3,225.8 278.7,225 278.7,223.4 					"/>
				</g>
				<g>
					<polygon class="st5" points="271.7,224.3 271.7,225.8 278.7,221.8 278.7,220.2 					"/>
				</g>
				<g>
					<polygon class="st5" points="271.7,233.9 271.7,235.4 278.7,231.4 278.7,229.9 					"/>
				</g>
				<g>
					<polygon class="st5" points="271.7,230.7 271.7,232.2 278.7,228.2 278.7,226.7 					"/>
				</g>
			</g>
		</g>
		<g>
			<g class="st4">
				<g>
					<polygon class="st6" points="259.6,146.6 258.1,147.4 241.1,137.6 242.6,136.7 					"/>
				</g>
				<g>
					<polygon class="st6" points="270.2,152.7 268.8,153.6 259,147.9 260.4,147.1 					"/>
				</g>
				<g>
					<polygon class="st6" points="267.1,154.5 265.6,155.4 238,139.4 239.4,138.6 					"/>
				</g>
				<g>
					<polygon class="st6" points="235.7,155.2 234.3,156.1 221.7,148.8 223.2,148 					"/>
				</g>
				<g>
					<polygon class="st6" points="245.5,155.3 244,156.1 226.6,146 228,145.2 					"/>
				</g>
				<g>
					<polygon class="st6" points="258.6,159.9 257.2,160.8 229,144.5 230.4,143.7 					"/>
				</g>
				<g>
					<polygon class="st6" points="266.7,161 265.2,161.8 232.2,142.7 233.7,141.9 					"/>
				</g>
				<g>
					<polygon class="st6" points="246.3,161.3 244.8,162.1 235,156.5 236.5,155.6 					"/>
				</g>
				<g>
					<polygon class="st6" points="280.2,162.1 278.8,163 266.3,155.8 267.7,154.9 					"/>
				</g>
				<g>
					<polygon class="st6" points="277.1,164 275.6,164.8 258.2,154.7 259.6,153.9 					"/>
				</g>
				<g>
					<polygon class="st6" points="271.5,167.4 270,168.2 258.1,161.3 259.6,160.5 					"/>
				</g>
				<g>
					<polygon class="st6" points="266.3,170.2 264.9,171.1 231.8,152 233.3,151.1 					"/>
				</g>
				<g>
					<polygon class="st6" points="264.1,171.6 262.7,172.5 245.6,162.6 247.1,161.8 					"/>
				</g>
				<g>
					<polygon class="st6" points="261.3,173.2 259.9,174.1 250.1,168.5 251.5,167.6 					"/>
				</g>
				<g>
					<polygon class="st6" points="258.8,174.7 257.4,175.6 224.3,156.5 225.8,155.6 					"/>
				</g>
			</g>
			<g>
				<polygon class="st6" points="283.4,160.3 281.9,161.2 269.4,153.9 270.9,153.1 				"/>
			</g>
		</g>
		<g>
			<linearGradient id="SVGID_4_" gradientUnits="userSpaceOnUse" x1="188.7279" y1="176.7832" x2="251.6762" y2="176.7832">
				<stop  offset="7.516645e-08" style="stop-color:#151515;stop-opacity:0"/>
				<stop  offset="8.543818e-02" style="stop-color:#2B3327;stop-opacity:8.543813e-02"/>
				<stop  offset="0.1953" style="stop-color:#405134;stop-opacity:0.1953"/>
				<stop  offset="0.3101" style="stop-color:#54703D;stop-opacity:0.3101"/>
				<stop  offset="0.4286" style="stop-color:#668B42;stop-opacity:0.4286"/>
				<stop  offset="0.5521" style="stop-color:#74A243;stop-opacity:0.5521"/>
				<stop  offset="0.6825" style="stop-color:#7EB343;stop-opacity:0.6825"/>
				<stop  offset="0.8246" style="stop-color:#85BF43;stop-opacity:0.8246"/>
				<stop  offset="1" style="stop-color:#87C544"/>
			</linearGradient>
			<line class="st10" x1="190.7" y1="159.1" x2="249.7" y2="194.4"/>
			
				<linearGradient id="SVGID_5_" gradientUnits="userSpaceOnUse" x1="-156.2591" y1="176.1242" x2="-90.4903" y2="176.1242" gradientTransform="matrix(-1 0 0 1 157.7198 0)">
				<stop  offset="7.516645e-08" style="stop-color:#151515;stop-opacity:0"/>
				<stop  offset="8.543818e-02" style="stop-color:#2B3327;stop-opacity:8.543813e-02"/>
				<stop  offset="0.1953" style="stop-color:#405134;stop-opacity:0.1953"/>
				<stop  offset="0.3101" style="stop-color:#54703D;stop-opacity:0.3101"/>
				<stop  offset="0.4286" style="stop-color:#668B42;stop-opacity:0.4286"/>
				<stop  offset="0.5521" style="stop-color:#74A243;stop-opacity:0.5521"/>
				<stop  offset="0.6825" style="stop-color:#7EB343;stop-opacity:0.6825"/>
				<stop  offset="0.8246" style="stop-color:#85BF43;stop-opacity:0.8246"/>
				<stop  offset="1" style="stop-color:#87C544"/>
			</linearGradient>
			<line class="st11" x1="312" y1="157.8" x2="250.2" y2="194.4"/>
			<linearGradient id="SVGID_6_" gradientUnits="userSpaceOnUse" x1="249.6761" y1="279.0767" x2="249.6761" y2="193.1049">
				<stop  offset="7.516645e-08" style="stop-color:#151515;stop-opacity:0"/>
				<stop  offset="8.543818e-02" style="stop-color:#2B3327;stop-opacity:8.543813e-02"/>
				<stop  offset="0.1953" style="stop-color:#405134;stop-opacity:0.1953"/>
				<stop  offset="0.3101" style="stop-color:#54703D;stop-opacity:0.3101"/>
				<stop  offset="0.4286" style="stop-color:#668B42;stop-opacity:0.4286"/>
				<stop  offset="0.5521" style="stop-color:#74A243;stop-opacity:0.5521"/>
				<stop  offset="0.6825" style="stop-color:#7EB343;stop-opacity:0.6825"/>
				<stop  offset="0.8246" style="stop-color:#85BF43;stop-opacity:0.8246"/>
				<stop  offset="1" style="stop-color:#87C544"/>
			</linearGradient>
			<path class="st12" d="M251,194.4l-1,83.3l-1.7-83.3c0-0.7,0.6-1.3,1.3-1.3C250.4,193.1,251,193.6,251,194.4
				C251,194.4,251,194.4,251,194.4z"/>
		</g>
	</g>
</g>
</svg>
